HIERARCHY
ROOT hip
{
  OFFSET 0 0 0
  CHANNELS 6 Xposition Yposition Zposition Zrotation Yrotation Xrotation
  JOINT abdomen
  {
    OFFSET 0 20.6881 -0.73152
    CHANNELS 3 Zrotation Xrotation Yrotation
    JOINT chest
    {
      OFFSET 0 11.7043 -0.48768
      CHANNELS 3 Zrotation Xrotation Yrotation
      JOINT neck
      {
        OFFSET 0 22.1894 -2.19456
        CHANNELS 3 Zrotation Xrotation Yrotation
        JOINT head
        {
          OFFSET -0.24384 7.07133 1.2192
          CHANNELS 3 Zrotation Xrotation Yrotation
          JOINT leftEye
          {
            OFFSET 4.14528 8.04674 8.04672
            CHANNELS 3 Zrotation Xrotation Yrotation
            End Site
            {
              OFFSET 1 0 0
            }
          }
          JOINT rightEye
          {
            OFFSET -3.6576 8.04674 8.04672
            CHANNELS 3 Zrotation Xrotation Yrotation
            End Site
            {
              OFFSET 1 0 0
            }
          }
        }
      }
      JOINT rCollar
      {
        OFFSET -2.68224 19.2634 -4.8768
        CHANNELS 3 Zrotation Xrotation Yrotation
        JOINT rShldr
        {
          OFFSET -8.77824 -1.95073 1.46304
          CHANNELS 3 Zrotation Xrotation Yrotation
          JOINT rForeArm
          {
            OFFSET -28.1742 -1.7115 0.48768
            CHANNELS 3 Zrotation Xrotation Yrotation
            JOINT rHand
            {
              OFFSET -22.5879 0.773209 7.07136
              CHANNELS 3 Zrotation Xrotation Yrotation
              JOINT rThumb1
              {
                OFFSET -1.2192 -0.487915 3.41376
                CHANNELS 3 Zrotation Xrotation Yrotation
                JOINT rThumb2
                {
                  OFFSET -3.37035 -0.52449 3.41376
                  CHANNELS 3 Zrotation Xrotation Yrotation
                  End Site
                  {
                    OFFSET -1.78271 -1.18214 1.43049
                  }
                }
              }
              JOINT rIndex1
              {
                OFFSET -7.75947 0.938293 5.60832
                CHANNELS 3 Zrotation Xrotation Yrotation
                JOINT rIndex2
                {
                  OFFSET -2.54057 -0.884171 1.56538
                  CHANNELS 3 Zrotation Xrotation Yrotation
                  End Site
                  {
                    OFFSET -1.62519 -0.234802 1.16502
                  }
                }
              }
              JOINT rMid1
              {
                OFFSET -8.24714 1.18213 3.41376
                CHANNELS 3 Zrotation Xrotation Yrotation
                JOINT rMid2
                {
                  OFFSET -3.10165 -0.590103 1.0647
                  CHANNELS 3 Zrotation Xrotation Yrotation
                  End Site
                  {
                    OFFSET -2.48547 -0.328903 0.83742
                  }
                }
              }
              JOINT rRing1
              {
                OFFSET -8.82822 0.546677 1.51678
                CHANNELS 3 Zrotation Xrotation Yrotation
                JOINT rRing2
                {
                  OFFSET -2.60934 -0.819778 -0.0198488
                  CHANNELS 3 Zrotation Xrotation Yrotation
                  End Site
                  {
                    OFFSET -2.33842 -0.294052 0.168128
                  }
                }
              }
              JOINT rPinky1
              {
                OFFSET -8.27202 -0.0477905 -0.4584
                CHANNELS 3 Zrotation Xrotation Yrotation
                JOINT rPinky2
                {
                  OFFSET -1.82734 -0.647385 -0.700984
                  CHANNELS 3 Zrotation Xrotation Yrotation
                  End Site
                  {
                    OFFSET -1.69225 -0.51767 -0.607171
                  }
                }
              }
            }
          }
        }
      }
      JOINT lCollar
      {
        OFFSET 2.68224 19.2634 -4.8768
        CHANNELS 3 Zrotation Xrotation Yrotation
        JOINT lShldr
        {
          OFFSET 8.77824 -1.95073 1.46304
          CHANNELS 3 Zrotation Xrotation Yrotation
          JOINT lForeArm
          {
            OFFSET 28.1742 -1.7115 0.48768
            CHANNELS 3 Zrotation Xrotation Yrotation
            JOINT lHand
            {
              OFFSET 22.5879 0.773209 7.07136
              CHANNELS 3 Zrotation Xrotation Yrotation
              JOINT lThumb1
              {
                OFFSET 1.2192 -0.487915 3.41376
                CHANNELS 3 Zrotation Xrotation Yrotation
                JOINT lThumb2
                {
                  OFFSET 3.37035 -0.52449 3.41376
                  CHANNELS 3 Zrotation Xrotation Yrotation
                  End Site
                  {
                    OFFSET 1.78271 -1.18214 1.43049
                  }
                }
              }
              JOINT lIndex1
              {
                OFFSET 7.75947 0.938293 5.60832
                CHANNELS 3 Zrotation Xrotation Yrotation
                JOINT lIndex2
                {
                  OFFSET 2.54057 -0.884171 1.56538
                  CHANNELS 3 Zrotation Xrotation Yrotation
                  End Site
                  {
                    OFFSET 1.62519 -0.234802 1.16502
                  }
                }
              }
              JOINT lMid1
              {
                OFFSET 8.24714 1.18213 3.41376
                CHANNELS 3 Zrotation Xrotation Yrotation
                JOINT lMid2
                {
                  OFFSET 3.10165 -0.590103 1.0647
                  CHANNELS 3 Zrotation Xrotation Yrotation
                  End Site
                  {
                    OFFSET 2.48547 -0.328903 0.83742
                  }
                }
              }
              JOINT lRing1
              {
                OFFSET 8.82822 0.546677 1.51678
                CHANNELS 3 Zrotation Xrotation Yrotation
                JOINT lRing2
                {
                  OFFSET 2.60934 -0.819778 -0.0198488
                  CHANNELS 3 Zrotation Xrotation Yrotation
                  End Site
                  {
                    OFFSET 2.33842 -0.294052 0.168128
                  }
                }
              }
              JOINT lPinky1
              {
                OFFSET 8.27202 -0.0477905 -0.4584
                CHANNELS 3 Zrotation Xrotation Yrotation
                JOINT lPinky2
                {
                  OFFSET 1.82734 -0.647385 -0.700984
                  CHANNELS 3 Zrotation Xrotation Yrotation
                  End Site
                  {
                    OFFSET 1.69225 -0.51767 -0.607171
                  }
                }
              }
            }
          }
        }
      }
    }
  }
  JOINT rButtock
  {
    OFFSET -8.77824 4.35084 1.2192
    CHANNELS 3 Zrotation Xrotation Yrotation
    JOINT rThigh
    {
      OFFSET 0 -1.70687 -2.19456
      CHANNELS 3 Zrotation Xrotation Yrotation
      JOINT rShin
      {
        OFFSET 0 -36.8199 0.73152
        CHANNELS 3 Zrotation Xrotation Yrotation
        JOINT rFoot
        {
          OFFSET 0.73152 -45.1104 -5.12064
          CHANNELS 3 Zrotation Xrotation Yrotation
          End Site
          {
            OFFSET -1.1221 -3.69964 12.103
          }
        }
      }
    }
  }
  JOINT lButtock
  {
    OFFSET 8.77824 4.35084 1.2192
    CHANNELS 3 Zrotation Xrotation Yrotation
    JOINT lThigh
    {
      OFFSET 0 -1.70687 -2.19456
      CHANNELS 3 Zrotation Xrotation Yrotation
      JOINT lShin
      {
        OFFSET 0 -36.8199 0.73152
        CHANNELS 3 Zrotation Xrotation Yrotation
        JOINT lFoot
        {
          OFFSET -0.73152 -45.1104 -5.12064
          CHANNELS 3 Zrotation Xrotation Yrotation
          End Site
          {
            OFFSET 1.1221 -3.69964 12.103
          }
        }
      }
    }
  }
}
MOTION
Frames:	8
Frame Time:	0.03333
0.0 0.0 0.0 0.0 0.0 0.0 0.0 0.0 0.0 0.0 0.0 0.0 0.0 0.0 0.0 0.0 0.0 0.0 0.0 0.0 0.0 0.0 0.0 0.0 0.0 0.0 0.0 0.0 0.0 0.0 0.0 0.0 0.0 0.0 0.0 0.0 0.0 0.0 0.0 0.0 0.0 0.0 0.0 0.0 0.0 0.0 0.0 0.0 0.0 0.0 0.0 0.0 0.0 0.0 0.0 0.0 0.0 0.0 0.0 0.0 0.0 0.0 0.0 0.0 0.0 0.0 0.0 0.0 0.0 0.0 0.0 0.0 0.0 0.0 0.0 0.0 0.0 0.0 0.0 0.0 0.0 0.0 0.0 0.0 0.0 0.0 0.0 0.0 0.0 0.0 0.0 0.0 0.0 0.0 0.0 0.0 0.0 0.0 0.0 0.0 0.0 0.0 0.0 0.0 0.0 0.0 0.0 0.0 0.0 0.0 0.0 0.0 0.0 0.0 0.0 0.0 0.0 0.0 0.0 0.0 0.0 0.0 0.0 0.0 0.0 0.0 0.0 0.0 0.0 0.0 0.0 0.0
5.8395 75.7705 9.282 -16.151357 -55.903925 22.622521 5.411489 -3.646401 89.427819 -11.156659 -7.892038 -90.354966 -3.202243 5.776249 -71.409215 18.9677 1.289091 71.839119 0.001972 0.0 0.00124 0.001972 0.0 0.00124 2.050697 -14.560903 -2.978681 -7.957012 63.379707 4.402237 153.779673 58.985877 80.18626 -117.358833 44.602575 103.917809 0.206386 -0.203956 -0.031122 -133.28816 -32.596691 117.021694 159.642855 -69.973602 102.397774 -46.21796 53.801488 36.456701 -160.672847 -6.667883 143.245248 -164.042464 -7.047257 143.188186 -145.119748 0.268019 -179.211809 12.070427 36.619717 -4.851933 -163.637702 74.573695 -150.52254 32.245526 74.913424 1.283976 44.920902 -86.287731 66.528734 58.627878 58.241017 -67.618161 177.321601 -24.070627 -24.448617 162.537854 14.679796 -138.13112 -88.928359 -50.832106 -37.599486 33.241874 5.251507 7.991435 -17.769329 -31.918248 5.95395 174.259272 -35.343262 -107.672031 161.15323 -8.160617 -143.465396 42.501315 58.272374 -36.59811 -0.003039 1.854608 -0.581314 49.880803 77.894076 -62.988531 -32.0362 83.31978 -6.208694 169.839882 70.843044 145.78369 179.998567 75.750369 0.00098 160.630402 51.9546 -34.112885 -20.585074 28.378245 126.50295 -56.8547 76.951958 -5.27308 -6.5e-05 -0.000728 8.4e-05 43.228051 -33.286639 180.0 77.896143 -62.128082 -40.53932 -116.136935 27.392016 27.175284
9.1794 76.5725 13.854 -11.232776 -61.299069 19.086103 2.286706 -2.063814 47.954196 -4.739417 -12.733784 -42.738625 6.468188 -3.990968 5.038568 -1.723711 -7.301644 4.016626 -0.004705 -0.0 0.002113 -0.005636 0.0 -0.002013 -9.653127 34.835778 11.20074 -157.023506 -38.656029 -168.081699 -61.212638 -8.958203 171.636852 -162.725338 -26.007972 159.916786 -94.791252 37.828654 54.284121 175.545982 -42.173282 75.55432 10.281691 -18.182624 -4.585733 -173.249783 -32.056906 107.834655 -152.827923 14.793546 138.51486 -128.88499 51.843918 118.09778 -75.673792 -72.117552 -92.828469 -150.387761 26.873792 172.851109 -144.110956 8.782308 -140.873072 16.997508 43.782023 6.04096 -0.035354 -0.209289 0.047392 9.189712 15.623077 -2.606026 2.279187 -4.660923 -113.719969 8.139259 -21.447924 5.66901 -5.513711 -5.499505 0.587235 142.076651 -48.902538 -123.588818 103.647088 36.534386 -87.623769 -15.651887 -16.799866 7.07405 158.521324 -0.1922 -142.145271 -92.060957 -78.19156 -63.047159 75.673813 -72.11609 92.828942 150.97456 -0.714862 -176.520412 145.541961 13.245635 142.147813 147.820414 12.410384 141.858674 -179.999424 75.749662 -0.000474 156.75924 43.268277 -147.931043 -13.224302 -45.736627 73.719083 -3.934519 8.413995 71.724992 -179.987133 75.748711 -0.008803 -140.929118 35.895906 -119.382275 -67.71321 -6.538824 -133.773746 95.14527 74.138329 177.759366
12.491299999999999 75.61280000000001 18.060599999999997 -5.110338 -65.175539 14.377384 0.389438 -2.214673 -0.0 3.243368 -11.840859 11.208275 18.051074 7.773731 107.02516 -14.884926 16.36029 -88.693303 0.001559 0.0 0.00037 0.001559 0.0 0.00037 -157.848488 -22.658045 165.567466 37.042008 -42.043142 30.09209 173.026912 -34.410603 -80.144753 -19.805676 -49.504152 -13.310222 3.024825 -3.006743 -0.386316 0.47405 -1.566324 -2.477864 -159.052221 -31.320174 122.654126 -151.091548 2.707306 118.150607 173.121277 -66.297614 137.6113 -163.454673 -4.737357 143.063802 -145.119942 0.309901 -179.226129 -154.169602 -12.623938 -177.48945 6.228399 18.789389 5.574805 -22.51934 -39.610054 -22.934341 -4.239465 -44.74279 8.647221 145.54232 59.247285 -136.55347 165.399806 55.203611 -30.814049 171.901036 -1.096414 -142.446389 -71.831921 -48.263114 -25.791433 150.39358 -11.232669 -120.704441 50.386814 40.826422 -40.02439 -12.82089 -9.802884 3.625638 125.64504 49.841004 -115.275525 36.249851 55.866218 -30.952313 77.741405 72.903693 -95.869954 158.601327 -28.209876 179.689246 0.169789 -0.436158 0.156325 -2.512694 0.044088 -0.032587 179.994852 75.748743 0.003522 153.333498 36.045136 16.019894 5.617883 65.960574 -107.351384 12.241717 43.050536 71.592822 0.028655 -0.000352 0.021491 24.737065 -24.183356 71.0096 34.276876 26.652478 -127.701182 6.099226 24.660669 61.792932
15.1717 74.0625 21.9248 -1.526552 -66.49247 10.799179 -1.245448 -6.906626 159.513787 -5.194074 5.750466 -145.480488 18.474134 8.484538 98.731828 -16.240475 13.391661 -74.508092 -0.001114 -0.0 0.005716 0.002967 -0.0 -0.000587 -3.670485 17.552183 4.527543 -167.699408 0.692143 -176.144843 172.038167 2.229306 -66.928268 -19.306524 -43.035495 -10.490731 -2.813809 2.754319 0.497439 -125.778437 -20.649674 111.611649 10.211665 -18.050635 -4.563809 19.452748 -8.47453 -1.880477 173.126093 -66.298108 137.615968 6.909906 -11.651067 -0.892135 -145.065676 -3.222728 -178.114813 7.756924 75.562413 4.290547 -146.184747 15.332775 -142.710466 27.400547 66.92082 4.15349 44.041064 64.186878 -46.710481 -4.006101 -26.52212 12.999694 -178.55241 36.61884 -52.76693 172.160295 4.480433 -141.58825 -66.258302 -46.842301 -22.11709 143.983935 -0.165436 -115.128942 158.401378 -30.155742 -122.605803 46.667053 55.256896 -33.31775 0.397402 1.151707 -0.222582 155.965153 15.617128 -139.902894 145.10138 -1.522355 178.650489 155.946916 8.448232 -179.753809 150.033602 28.966532 145.934413 -16.590478 43.856241 -6.103962 0.0 0.000135 -0.000724 -31.061515 -37.544067 62.299578 93.418389 -8.513755 94.589296 -62.060472 28.309794 170.719164 179.999592 75.750415 -0.0 -149.741816 46.670979 -22.575009 -1.12295 48.814114 147.576618 94.722386 58.219037 178.894747
17.7405 72.7727 25.5065 1.788788 -66.103235 6.302042 0.21608 -0.879511 -13.346048 3.595161 -12.310053 29.597454 8.87472 20.338362 -171.331423 5.008019 26.824686 -161.533951 0.000458 0.0 0.002648 -0.000981 0.0 -0.002471 -151.162733 17.966753 156.41996 -145.629406 24.872959 157.63688 -39.0532 0.998445 142.954116 -164.913347 -62.504547 173.438494 93.0285 -51.084188 40.500813 -95.350252 -87.166305 -133.108262 -166.820554 -43.974042 122.062018 -154.725423 -7.403159 118.914065 -160.097506 -4.901002 142.969888 -163.565083 -5.630961 143.053713 -0.000866 -0.018604 -0.005344 -156.564431 -30.817154 175.468484 -133.878758 -15.639247 -131.333313 -146.795733 11.082156 -141.70783 155.537904 -3.733346 -161.884835 -33.373387 -33.680356 -11.070463 27.588258 45.978599 93.391289 -176.245208 -25.331894 -143.519921 -169.910842 -26.367862 -86.897133 41.313654 -18.041407 2.513043 160.101185 -33.162215 -122.699994 3.69673 28.419328 1.607902 151.476255 17.841185 -137.537476 -86.527654 -77.985064 -57.71378 -0.004737 1.770926 -0.556285 -7.68067 24.087136 -3.553468 146.211445 15.427557 142.738768 -1.238185 -2.469201 2.774175 -179.99432 75.750583 -0.003887 152.530148 35.812635 -0.0 164.042826 74.942188 87.765198 12.650792 -23.083977 115.893565 179.988189 75.750583 0.009718 -153.403531 47.070608 -19.768407 -19.307499 44.387474 -87.569088 122.35881 -41.3524 -150.176802
20.3786 71.4804 28.520699999999998 9.249624 -64.651415 -0.476478 -0.685106 -2.151762 -62.156535 9.827378 -6.846275 80.061647 18.322479 13.236754 113.211334 -13.71519 15.906536 -77.805797 0.00403 -0.0 -0.001222 -0.001238 -0.0 0.001529 0.117647 -0.714108 -0.157707 6.681726 -13.305906 -4.698955 -96.731363 -53.42909 80.400422 -165.921433 -24.309365 154.476598 -165.726606 -3.398603 89.69308 90.405257 -63.947188 67.265458 -46.209413 39.652165 36.318665 -3.226436 14.331031 0.765386 -175.766049 -50.33443 144.099658 -114.136945 59.026603 104.345073 0.005291 1.770572 0.55538 -156.673468 -27.661166 175.089378 5.662697 16.872142 5.088693 14.305726 41.849033 8.41187 155.548393 -3.804076 -161.900536 -21.500996 17.449113 -10.218361 -10.293911 -8.186893 103.819323 -179.836157 -5.509618 -143.34776 -5.435541 -5.421606 0.583216 30.760317 25.086757 -24.550021 4.70699 7.223726 -2.855768 114.034502 38.36383 -88.64987 36.035786 51.723427 -29.831645 158.82021 7.67686 -141.487601 145.121395 0.3105 179.224898 150.359597 -35.132703 173.020033 -0.100181 0.258113 -0.090867 22.760644 -40.182303 23.48315 -0.0 -8.9e-05 -0.000527 -21.676 -27.289392 -10.723312 117.276261 41.30784 -3.643103 25.641439 77.815172 -101.811577 -0.0 -0.00187 -0.000347 15.127691 -25.940412 -28.684894 -38.959534 34.745758 162.464339 -23.670776 -22.322474 -110.647789
22.6686 69.97529999999999 31.1045 13.143106 -62.328821 -2.661649 -2.829865 -5.974415 -112.414506 9.568629 1.428364 130.669212 17.70036 16.2435 127.115523 -12.991106 19.091181 -86.305 -0.00131 0.0 -0.001101 -0.00131 0.0 -0.001101 2.388187 -17.55089 -3.544445 -162.41107 -44.21087 -172.700437 173.067424 -6.423805 -52.67451 -16.327907 -18.070702 -4.618007 -171.652402 -9.336736 89.949353 -152.821975 3.547385 79.485127 -138.491278 4.895614 114.864778 -2.228183 20.207556 -4.454901 -10.975751 25.789894 7.640117 -27.636322 51.089406 22.953529 -1e-05 0.022723 0.006605 11.441147 -23.576303 -2.835954 -104.236675 -44.889737 -102.393652 -146.263032 10.942717 -142.232741 -3.928254 -36.415178 7.02176 -174.795592 -26.324613 -157.897426 12.166527 6.899222 89.364263 -166.802199 -33.732176 -140.803965 121.364764 30.32948 -71.95765 -8.243842 -32.007142 -25.094752 -9.088548 -15.965414 4.195759 78.538757 48.453633 -62.776082 167.374775 -28.008342 -145.270295 -2.306084 2.417759 -0.682586 145.119032 0.184628 179.188309 152.386119 -25.064807 175.335076 113.838022 -39.286122 111.849189 -2.99954 -0.677553 1.640333 179.985364 75.749841 0.012042 160.417517 49.895761 77.150281 110.331033 -25.142123 3.301884 -1.874768 3.527974 -75.171222 -0.000801 0.000423 0.00103 9.97389 -31.86352 -180.0 18.772585 -53.51089 -35.837361 173.085668 58.669645 93.39332
